HIERARCHY
ROOT Hips
{
	OFFSET 0.000000 0.000000 0.000000
	CHANNELS 6 Xposition Yposition Zposition Zrotation Yrotation Xrotation 
	JOINT LeftUpLeg_virtual
	{
		OFFSET 0.000000 0.000000 0.000000
		CHANNELS 3 Zrotation Yrotation Xrotation
		JOINT LeftUpLeg
		{
			OFFSET 10.205400 -3.823500 0.155100
			CHANNELS 3 Zrotation Yrotation Xrotation
			JOINT LeftLeg
			{
				OFFSET 0.708757 -12.982077 0.567790
				CHANNELS 3 Zrotation Yrotation Xrotation
				JOINT LeftFoot
				{
					OFFSET -0.708756 -10.717838 -2.184338
					CHANNELS 3 Zrotation Yrotation Xrotation
					JOINT LeftToeBase
					{
						OFFSET 0.108149 -7.191104 7.560241
						CHANNELS 3 Zrotation Yrotation Xrotation
						End Site
						{
							OFFSET 0.000000 0.000000 0.000000
						}
					}
				}
			}
		}
	}
	JOINT RightUpLeg_virtual
	{
		OFFSET 0.000000 0.000000 0.000000
		CHANNELS 3 Zrotation Yrotation Xrotation
		JOINT RightUpLeg
		{
			OFFSET -10.205400 -3.823500 0.005500
			CHANNELS 3 Zrotation Yrotation Xrotation
			JOINT RightLeg
			{
				OFFSET -0.708756 -12.982134 0.610632
				CHANNELS 3 Zrotation Yrotation Xrotation
				JOINT RightFoot
				{
					OFFSET 0.708754 -10.717769 -1.945823
					CHANNELS 3 Zrotation Yrotation Xrotation
					JOINT RightToeBase
					{
						OFFSET -0.108140 -7.191069 7.372968
						CHANNELS 3 Zrotation Yrotation Xrotation
						End Site
						{
							OFFSET 0.000000 0.000000 0.000000
						}
					}
				}
			}
		}
	}
	JOINT Spine_virtual
	{
		OFFSET 0.000000 0.000000 0.000000
		CHANNELS 3 Zrotation Yrotation Xrotation
		JOINT Spine
		{
			OFFSET 0.000000 6.876099 0.125700
			CHANNELS 3 Zrotation Yrotation Xrotation
			JOINT Spine1
			{
				OFFSET 0.000000 8.022060 0.146608
				CHANNELS 3 Zrotation Yrotation Xrotation
				JOINT Spine2
				{
					OFFSET 0.000000 9.168068 0.167552
					CHANNELS 3 Zrotation Yrotation Xrotation
					JOINT Neck_virtual
					{
						OFFSET 0.000000 0.000000 0.000000
						CHANNELS 3 Zrotation Yrotation Xrotation
						JOINT Neck
						{
							OFFSET 0.000000 10.314075 0.188496
							CHANNELS 3 Zrotation Yrotation Xrotation
							JOINT Head
							{
								OFFSET 0.000000 7.643700 -2.377400
								CHANNELS 3 Zrotation Yrotation Xrotation
								End Site
								{
									OFFSET 0.000000 0.000000 0.000000
								}
							}
						}
					}
					JOINT LeftShoulder_virtual
					{
						OFFSET 0.000000 0.000000 0.000000
						CHANNELS 3 Zrotation Yrotation Xrotation
						JOINT LeftShoulder
						{
							OFFSET 4.392200 8.824978 0.174984
							CHANNELS 3 Zrotation Yrotation Xrotation
							JOINT LeftArm
							{
								OFFSET 8.771219 -2.981674 -0.026999
								CHANNELS 3 Zrotation Yrotation Xrotation
								JOINT LeftForeArm
								{
									OFFSET 8.512804 0.000000 -0.000000
									CHANNELS 3 Zrotation Yrotation Xrotation
									JOINT LeftHand
									{
										OFFSET 18.484802 0.000000 -0.000000
										CHANNELS 3 Zrotation Yrotation Xrotation
										End Site
										{
											OFFSET 0.000000 0.000000 0.000000
										}
									}
								}
							}
						}
					}
					JOINT RightShoulder_virtual
					{
						OFFSET 0.000000 0.000000 0.000000
						CHANNELS 3 Zrotation Yrotation Xrotation
						JOINT RightShoulder
						{
							OFFSET -4.392200 8.824993 0.141379
							CHANNELS 3 Zrotation Yrotation Xrotation
							JOINT RightArm
							{
								OFFSET -8.771282 -2.981682 -0.094208
								CHANNELS 3 Zrotation Yrotation Xrotation
								JOINT RightForeArm
								{
									OFFSET -8.494598 0.000000 0.000000
									CHANNELS 3 Zrotation Yrotation Xrotation
									JOINT RightHand
									{
										OFFSET -18.483803 0.000000 0.000001
										CHANNELS 3 Zrotation Yrotation Xrotation
										End Site
										{
											OFFSET 0.000000 0.000000 0.000000
										}
									}
								}
							}
						}
					}
				}
			}
		}
	}
}
MOTION
Frames: 14
Frame Time: 0.033333
8.895930 35.220245 -0.165131 -179.760101 -5.874323 179.763599 -0.575403 -6.814641 10.208263 -15.954215 18.186863 -27.969698 20.655359 0.511409 35.534950 -5.551356 -4.246405 29.858312 0.000000 0.000000 0.000000 3.890719 -4.724756 8.218539 20.946727 -0.350404 -12.248780 -5.182386 8.036294 16.426929 0.439466 1.217568 16.520129 0.000000 0.000000 0.000000 1.698964 -2.652296 2.294188 4.203007 2.438325 -14.221949 -1.807466 -2.421197 11.236371 -0.048667 -0.056495 -0.031527 -1.768964 -0.523521 9.549557 -16.849805 0.782686 17.008810 0.000000 0.000000 0.000000 0.331013 0.241624 5.810951 -0.288546 3.756663 3.852032 -30.792907 18.894660 -48.015417 -6.084970 -65.200918 4.593572 0.000000 0.000000 0.000000 -4.714585 1.594745 4.490542 23.365659 15.994756 10.654635 62.605015 -36.457193 6.150776 -155.023219 72.502663 -156.437246 0.000000 0.000000 0.000000 
8.911434 35.218475 -0.153587 -179.777040 -5.812532 179.799853 -0.561545 -6.881272 10.188984 -15.981999 18.145813 -28.003028 20.687726 0.450188 35.546623 -5.599249 -4.120100 29.867925 0.000000 0.000000 0.000000 3.904823 -4.750640 8.117201 20.933606 -0.229550 -12.248246 -5.183341 8.029571 16.530566 0.517515 1.094581 16.524970 0.000000 0.000000 0.000000 1.703848 -2.644123 2.172151 4.225975 2.492202 -14.255622 -1.689847 -2.429930 11.274948 -0.011762 -0.044617 -0.002941 -1.681801 -0.500042 9.568682 -16.599236 0.548450 17.067576 0.000000 0.000000 0.000000 0.421157 0.198579 5.846712 -0.596745 3.158737 4.320112 -30.742395 19.606246 -46.183656 -6.178359 -67.591784 5.900272 0.000000 0.000000 0.000000 -4.616187 1.614045 4.476310 23.382453 15.783754 10.848439 62.464252 -36.551785 5.961077 -155.725868 72.696217 -157.266718 0.000000 0.000000 0.000000 
8.921786 35.217621 -0.143723 -179.773612 -5.907036 179.833608 -0.528364 -7.013763 10.175803 -16.020157 18.170919 -28.073449 20.717661 0.353660 35.578602 -5.634623 -3.997567 29.922543 0.000000 0.000000 0.000000 3.963528 -4.751685 8.045453 20.906555 -0.096637 -12.320179 -5.191249 8.008512 16.657817 0.588274 0.942917 16.513965 0.000000 0.000000 0.000000 1.735509 -2.736249 2.091039 4.249390 2.609296 -14.353463 -1.560363 -2.375233 11.354713 -0.017007 -0.141954 -0.030878 -1.585094 -0.675693 9.640930 -16.181010 0.454713 17.029762 0.000000 0.000000 0.000000 0.522843 0.187713 5.835125 -0.959768 2.442360 4.761450 -30.712574 20.279390 -42.785036 -6.941039 -71.210726 8.442594 0.000000 0.000000 0.000000 -4.540540 1.577641 4.549563 23.402055 15.585937 11.144588 62.411093 -36.566736 5.869693 -155.728518 72.771185 -157.380263 0.000000 0.000000 0.000000 
8.921309 35.218555 -0.144267 -179.751605 -5.792546 179.871720 -0.502392 -6.930610 10.171156 -16.094511 18.406772 -28.206263 20.712322 0.290242 35.615721 -5.703080 -3.919930 29.910293 0.000000 0.000000 0.000000 4.023017 -4.659644 8.031596 20.888424 -0.058919 -12.397584 -5.210038 7.998027 16.753616 0.670326 0.786966 16.565195 0.000000 0.000000 0.000000 1.774789 -2.648522 1.968867 4.320083 2.580305 -14.428684 -1.478473 -2.428917 11.460250 -0.053637 -0.057732 -0.023424 -1.356530 -0.513948 9.772119 -15.589519 0.399853 17.027730 0.000000 0.000000 0.000000 0.656752 0.209776 5.862394 -1.416577 1.693406 5.556327 -31.112546 21.046489 -37.801303 -8.941837 -76.106080 12.409013 0.000000 0.000000 0.000000 -4.427840 1.605386 4.670237 23.483302 15.458192 11.313813 62.342470 -36.517763 5.867559 -156.083360 72.879887 -157.826943 0.000000 0.000000 0.000000 
8.901978 35.212212 -0.149512 -179.732412 -5.687854 179.888413 -0.490505 -6.911804 10.167762 -16.205759 18.728239 -28.335743 20.704327 0.231593 35.727357 -5.748204 -3.864629 29.846602 0.000000 0.000000 0.000000 4.026099 -4.615503 8.047956 20.897153 -0.052720 -12.502501 -5.209864 7.983998 16.882604 0.764903 0.642676 16.642210 0.000000 0.000000 0.000000 1.771775 -2.631099 1.818357 4.444634 2.642144 -14.512617 -1.284703 -2.394058 11.564199 -0.073757 -0.040466 -0.031311 -1.240042 -0.489645 9.944428 -14.948537 0.121070 17.070309 0.000000 0.000000 0.000000 0.794629 0.191960 5.945964 -2.060056 0.973453 6.209752 -31.979373 21.766199 -30.973419 -15.716364 -81.515268 21.311307 0.000000 0.000000 0.000000 -4.293327 1.731182 4.730946 23.516556 15.040336 11.544573 62.278997 -36.223280 5.894607 -156.275275 73.001478 -158.109563 0.000000 0.000000 0.000000 
8.864350 35.198586 -0.166898 -179.718792 -5.626011 179.894506 -0.537645 -7.017618 10.176870 -16.317937 19.062935 -28.467897 20.696071 0.114416 35.931566 -5.780523 -3.839446 29.746737 0.000000 0.000000 0.000000 3.966556 -4.697748 8.115394 20.901788 -0.090813 -12.633867 -5.194275 7.974531 17.005704 0.864474 0.513337 16.799697 0.000000 0.000000 0.000000 1.777586 -2.661722 1.646037 4.623431 2.661726 -14.538355 -1.192960 -2.392110 11.630327 -0.046532 -0.075183 -0.060239 -1.040025 -0.519828 10.140305 -14.239512 0.054421 17.062844 0.000000 0.000000 0.000000 0.902736 0.152889 6.022431 -3.023213 0.284431 7.046417 -33.671866 22.557591 -22.781054 -39.462248 -86.189310 47.207788 0.000000 0.000000 0.000000 -4.187674 1.585835 4.925927 23.471185 14.713426 11.622196 62.132756 -35.846322 6.169359 -156.119232 73.081153 -158.035305 0.000000 0.000000 0.000000 
8.821564 35.181717 -0.201646 -179.729338 -5.381155 -179.987806 -0.581514 -7.035292 10.198941 -16.488534 19.370545 -28.684824 20.665067 -0.047513 36.201075 -5.786520 -3.835870 29.578882 0.000000 0.000000 0.000000 3.900727 -4.591277 8.168385 20.863914 0.102411 -12.877367 -5.179513 7.943630 17.344045 0.931575 0.392914 16.549468 0.000000 0.000000 0.000000 1.752969 -2.578105 1.497060 4.849929 2.712200 -14.830000 -1.052155 -2.368808 11.765575 -0.018533 -0.070965 0.030991 -0.941700 -0.461505 10.146959 -13.589675 -0.243062 17.059950 0.000000 0.000000 0.000000 0.974863 0.111757 6.078445 -4.363304 -0.283088 7.795307 -36.272580 23.448449 -13.651392 -116.626710 -87.183321 126.417185 0.000000 0.000000 0.000000 -4.075379 1.601466 4.889884 23.408510 14.186824 11.571664 61.913083 -35.412475 6.528878 -156.372577 73.245822 -158.398617 0.000000 0.000000 0.000000 
8.779350 35.161587 -0.228934 -179.673044 -5.032829 -179.939571 -0.563223 -6.909488 10.260434 -16.641853 19.512531 -28.903677 20.586096 -0.322513 36.462791 -5.755591 -3.834024 29.326848 0.000000 0.000000 0.000000 3.879416 -4.374536 8.295421 20.849325 0.260897 -13.111401 -5.162414 7.929604 17.596881 1.011219 0.301892 16.407412 0.000000 0.000000 0.000000 1.839677 -2.545124 1.422407 5.146055 2.729736 -15.007906 -0.994217 -2.369051 11.806723 -0.043560 -0.101236 0.036147 -0.832466 -0.575350 10.261561 -12.912891 -0.529411 17.042883 0.000000 0.000000 0.000000 1.121007 0.166629 6.178419 -5.905548 -0.584177 8.392469 -39.603701 24.564067 -4.568198 -145.118707 -85.229969 156.851142 0.000000 0.000000 0.000000 -3.972900 1.684984 4.948688 23.374951 13.665113 11.554286 61.544984 -34.947394 7.177836 -155.940213 73.291188 -158.077120 0.000000 0.000000 0.000000 
8.755211 35.144978 -0.260075 -179.676541 -4.918143 -179.939421 -0.566097 -6.948345 10.430616 -16.798082 19.475752 -29.039813 20.485990 -0.657281 36.553403 -5.637676 -3.793546 29.106902 0.000000 0.000000 0.000000 3.832108 -4.371047 8.497033 20.824453 0.466793 -13.327760 -5.116064 7.910426 17.811740 1.086723 0.230318 16.284626 0.000000 0.000000 0.000000 1.857400 -2.452392 1.450412 5.434550 2.720572 -15.180230 -0.899678 -2.440952 11.803858 -0.064417 -0.164229 0.028945 -0.721333 -0.558786 10.325906 -12.324518 -0.841069 17.021373 0.000000 0.000000 0.000000 1.155526 0.114793 6.269068 -7.513661 -0.877600 9.001532 -43.306213 25.722615 3.862822 -153.274253 -84.086527 166.749725 0.000000 0.000000 0.000000 -3.884377 1.688118 4.996749 23.283686 13.065436 11.442776 61.268334 -34.416900 7.659016 -155.808008 73.284556 -158.091654 0.000000 0.000000 0.000000 
8.754126 35.134907 -0.278229 -179.700365 -4.488946 -179.855669 -0.514821 -6.859258 10.605523 -16.982359 19.360977 -29.146989 20.376688 -0.957996 36.430644 -5.439080 -3.698931 28.999907 0.000000 0.000000 0.000000 3.829792 -4.140672 8.619963 20.779440 0.696158 -13.567553 -5.065365 7.882877 18.010907 1.158396 0.172718 16.021530 0.000000 0.000000 0.000000 1.891629 -2.237091 1.442585 5.716556 2.802883 -15.382582 -0.801851 -2.456251 11.850063 -0.045807 -0.092491 0.022642 -0.657900 -0.481897 10.401854 -11.933242 -1.190193 17.092079 0.000000 0.000000 0.000000 1.188668 -0.015879 6.365307 -8.852567 -1.131579 9.301243 -46.651794 26.631433 11.479359 -157.204016 -83.871800 172.214040 0.000000 0.000000 0.000000 -3.748883 1.565655 5.012842 23.078721 12.398830 11.269713 60.825232 -33.935447 8.215842 -156.032543 73.147474 -158.537461 0.000000 0.000000 0.000000 
8.770708 35.131386 -0.291099 -179.691089 -4.187072 -179.844277 -0.487864 -6.874947 10.721554 -17.112527 19.041608 -29.120621 20.215237 -1.269782 36.239713 -5.346969 -3.669467 28.981883 0.000000 0.000000 0.000000 3.869093 -4.100303 8.730266 20.701806 1.006575 -13.630960 -5.008315 7.879694 18.166659 1.256897 0.122893 15.775901 0.000000 0.000000 0.000000 1.967738 -2.173987 1.407307 5.894229 2.795771 -15.471663 -0.775203 -2.448193 11.847293 -0.016146 -0.097303 0.016245 -0.501032 -0.747543 10.418876 -11.432232 -1.450473 16.996810 0.000000 0.000000 0.000000 1.322958 -0.100113 6.393322 -9.750500 -1.330436 9.642910 -49.428460 27.029937 17.739430 -158.881169 -83.984969 175.190746 0.000000 0.000000 0.000000 -3.620318 1.514555 5.072603 22.956542 11.851544 11.073620 60.543951 -33.434155 8.803177 -155.256320 73.059597 -158.029527 0.000000 0.000000 0.000000 
8.811857 35.127647 -0.326643 -179.720527 -3.722761 -179.923343 -0.432467 -6.731879 10.874665 -17.112057 18.532012 -28.881168 20.079643 -1.592487 36.057798 -5.292556 -3.658761 29.120867 0.000000 0.000000 0.000000 3.873870 -4.006186 8.826191 20.595971 1.305750 -13.515918 -4.917107 7.850505 18.293349 1.357957 0.063896 15.518169 0.000000 0.000000 0.000000 1.945587 -1.986570 1.379567 6.071466 2.706852 -15.460304 -0.624374 -2.482688 11.819241 -0.031337 -0.061618 0.017455 -0.526130 -0.683461 10.472983 -11.228495 -1.739405 17.002301 0.000000 0.000000 0.000000 1.361872 -0.209206 6.383100 -10.060963 -1.457775 9.784243 -50.977981 26.820541 22.890785 -161.110885 -84.109279 178.423447 0.000000 0.000000 0.000000 -3.591142 1.465004 5.130737 22.841331 11.413561 10.846410 60.228895 -33.050001 9.477010 -154.933648 72.967526 -158.056738 0.000000 0.000000 0.000000 
8.868974 35.122681 -0.375952 -179.725705 -3.443067 -179.853921 -0.409531 -6.628977 10.810458 -16.999615 17.974389 -28.684722 19.955269 -1.986996 35.992303 -5.382095 -3.729162 29.297290 0.000000 0.000000 0.000000 3.905897 -3.883499 8.757846 20.495198 1.429873 -13.433907 -4.836287 7.834518 18.292732 1.471801 -0.006254 15.364552 0.000000 0.000000 0.000000 1.928895 -1.803479 1.148182 6.107540 2.766046 -15.475481 -0.551348 -2.651936 11.775871 -0.027094 -0.105523 0.071942 -0.401521 -0.925009 10.494364 -10.899893 -2.162187 17.024159 0.000000 0.000000 0.000000 1.482803 -0.376830 6.344333 -9.848023 -1.668971 9.728322 -51.488104 26.018436 26.832938 -162.543189 -84.327810 -179.394331 0.000000 0.000000 0.000000 -3.469436 1.297403 5.110475 22.724825 11.104440 10.713703 59.820019 -32.711183 10.451780 -154.063291 72.869738 -157.557315 0.000000 0.000000 0.000000 
8.934529 35.113178 -0.445119 -179.721388 -3.141073 -179.945609 -0.445192 -6.488975 10.875888 -16.909160 17.562940 -28.349866 20.072726 -2.397029 35.925641 -5.552882 -3.816729 29.182632 0.000000 0.000000 0.000000 3.945503 -3.839422 8.731103 20.391246 1.688160 -13.150923 -4.730891 7.742441 18.394727 1.537719 -0.120426 15.124870 0.000000 0.000000 0.000000 1.929220 -1.641013 1.038266 6.150478 2.606632 -15.403965 -0.478191 -2.755186 11.726619 -0.040622 -0.069335 0.011468 -0.378655 -1.041266 10.468815 -10.598267 -2.424198 16.972783 0.000000 0.000000 0.000000 1.564656 -0.482142 6.347848 -9.325822 -1.741871 9.693576 -51.145256 24.792053 29.359346 -164.273891 -84.397581 -177.174014 0.000000 0.000000 0.000000 -3.316323 1.205165 5.130160 22.610160 10.982038 10.630641 59.350191 -32.428550 11.469765 -153.809809 72.736242 -157.749940 0.000000 0.000000 0.000000 
